<?xml version="1.0" encoding="utf-8"?>
<!-- Generator: Adobe Illustrator 28.1.0, SVG Export Plug-In . SVG Version: 6.00 Build 0)  -->
<svg version="1.1" id="Layer_1" xmlns="http://www.w3.org/2000/svg" xmlns:xlink="http://www.w3.org/1999/xlink" x="0px" y="0px"
	 viewBox="0 0 139.9 153" style="enable-background:new 0 0 139.9 153;" xml:space="preserve">
<style type="text/css">
	.st0{fill:#639E47;stroke:#18510F;stroke-width:3;stroke-linecap:round;stroke-linejoin:round;}
	.st1{fill:none;stroke:#18510F;stroke-width:3;stroke-linecap:round;stroke-linejoin:round;}
	.st2{fill:#6FAD54;stroke:#18510F;stroke-width:3;stroke-linecap:round;stroke-linejoin:round;}
</style>
<g>
	<path class="st0" d="M116.9,107.3c0,0-8.5-9-7-22.5c0,0-15-20.2-17.2-34.5s-16-9-16.5-2.5s5.5,32.7,5.5,32.7
		c-9.3-7.4-18.6-14.8-27.9-22.1c-4-3.2-8-6.3-12-9.5c-4.2-3.3-7.7-7.1-13.4-6.7c-1.9,0.1-3.6,0.7-4.9,2.2c-0.9,1-3.1,6.4-1.7,7.5
		c0,0-8.7-6.7-13.6-1.4s0,12.9,2.2,15.1c0,0-5.7-1.3-8.4,4.7C-0.4,75.7,8.8,84,12.3,86.2c0,0-4.9,0-7.1,5.6s3.6,10.7,7.5,13.6
		S64,141.8,64,141.8s15.7-0.4,21.9,6.2C85.8,148,118.3,139.3,116.9,107.3L116.9,107.3z"/>
	<line class="st1" x1="21.8" y1="51.9" x2="69.8" y2="89.3"/>
	<line class="st1" x1="10.4" y1="65.6" x2="56.6" y2="98.7"/>
	<line class="st1" x1="12.3" y1="86.2" x2="51.8" y2="113"/>
</g>
<g>
	<path class="st2" d="M138.3,107.3c0,0-8.5-9-7-22.5c0,0-15-20.2-17.2-34.5s-16-9-16.5-2.5s5.5,32.7,5.5,32.7
		c-9.3-7.4-18.6-14.8-27.9-22.1c-4-3.2-8-6.3-12-9.5c-4.2-3.3-7.7-7.1-13.4-6.7c-1.8,0.1-3.7,0.7-4.9,2.2c-0.9,1-3.1,6.4-1.7,7.5
		c0,0-8.7-6.7-13.6-1.4s0,12.9,2.2,15.1c0,0-5.6-1.3-8.4,4.7c-2.4,5.3,6.7,13.6,10.2,15.8c0,0-4.9,0-7.1,5.6s3.6,10.7,7.5,13.6
		s51.3,36.3,51.3,36.3s15.7-0.4,21.8,6.2C107.2,148,139.7,139.3,138.3,107.3L138.3,107.3z"/>
	<line class="st1" x1="43.2" y1="51.9" x2="91.2" y2="89.3"/>
	<line class="st1" x1="31.9" y1="65.6" x2="78" y2="98.7"/>
	<line class="st1" x1="33.7" y1="86.2" x2="73.2" y2="113"/>
</g>
<line class="st1" x1="33.8" y1="25.5" x2="22.8" y2="8.3"/>
<line class="st1" x1="46.2" y1="24.4" x2="47.2" y2="1.5"/>
<line class="st1" x1="58.6" y1="26.3" x2="69.8" y2="10.1"/>
</svg>
