<?xml version="1.0" encoding="UTF-8"?>
<svg id="Layer_1" data-name="Layer 1" xmlns="http://www.w3.org/2000/svg" viewBox="0 0 139.88 238.7">
  <defs>
    <style>
      .cls-1 {
        fill: #6fad54;
      }

      .cls-1, .cls-2 {
        stroke: #18510f;
        stroke-linecap: round;
        stroke-linejoin: round;
        stroke-width: 3px;
      }

      .cls-2 {
        fill: #639e47;
      }
    </style>
  </defs>
  <g>
    <path class="cls-2" d="M116.89,107.3s-8.49-8.99-6.99-22.47c0,0-14.98-20.22-17.23-34.45s-15.98-8.99-16.48-2.5,5.49,32.71,5.49,32.71c-9.31-7.38-18.62-14.76-27.94-22.14-3.98-3.16-7.97-6.31-11.95-9.47-4.19-3.32-7.66-7.09-13.43-6.72-1.85.12-3.65.71-4.89,2.16-.88,1.02-3.07,6.42-1.72,7.46,0,0-8.74-6.74-13.61-1.37s0,12.86,2.25,15.11c0,0-5.65-1.31-8.36,4.74-2.4,5.35,6.74,13.61,10.24,15.85,0,0-4.87,0-7.12,5.62s3.62,10.74,7.49,13.61c3.87,2.87,51.31,36.33,51.31,36.33,0,0,15.73-.37,21.85,6.24,0,0,32.46-8.74,31.08-40.7Z"/>
    <line class="cls-2" x1="21.77" y1="51.88" x2="69.79" y2="89.35"/>
    <line class="cls-2" x1="10.41" y1="65.61" x2="56.58" y2="98.67"/>
    <line class="cls-2" x1="12.28" y1="86.21" x2="51.77" y2="112.98"/>
  </g>
  <g>
    <path class="cls-1" d="M138.33,107.3s-8.49-8.99-6.99-22.47c0,0-14.98-20.22-17.23-34.45-2.25-14.23-15.98-8.99-16.48-2.5s5.49,32.71,5.49,32.71c-9.31-7.38-18.62-14.76-27.94-22.14-3.98-3.16-7.97-6.31-11.95-9.47-4.19-3.32-7.66-7.09-13.43-6.72-1.85.12-3.65.71-4.89,2.16-.88,1.02-3.07,6.42-1.72,7.46,0,0-8.74-6.74-13.61-1.37-4.87,5.37,0,12.86,2.25,15.11,0,0-5.65-1.31-8.36,4.74-2.4,5.35,6.74,13.61,10.24,15.85,0,0-4.87,0-7.12,5.62-2.25,5.62,3.62,10.74,7.49,13.61s51.31,36.33,51.31,36.33c0,0,15.73-.37,21.85,6.24,0,0,32.46-8.74,31.08-40.7Z"/>
    <line class="cls-1" x1="43.21" y1="51.88" x2="91.23" y2="89.35"/>
    <line class="cls-1" x1="31.85" y1="65.61" x2="78.02" y2="98.67"/>
    <line class="cls-1" x1="33.72" y1="86.21" x2="73.21" y2="112.98"/>
  </g>
  <line class="cls-2" x1="33.8" y1="25.51" x2="22.82" y2="8.31"/>
  <line class="cls-2" x1="46.15" y1="24.4" x2="47.15" y2="1.5"/>
  <line class="cls-2" x1="58.59" y1="26.3" x2="69.82" y2="10.08"/>
</svg>