<?xml version="1.0" encoding="UTF-8"?>
<svg id="Layer_1" data-name="Layer 1" xmlns="http://www.w3.org/2000/svg" viewBox="0 0 230 230">
  <defs>
    <style>
      .cls-1 {
        fill: #6184E5;
      }

      .cls-1, .cls-2, .cls-3 {
        stroke-width: 0px;
      }

      .cls-2 {
        fill: #42cdc6;
      }

      .cls-4 {
        stroke: #374266;
        stroke-miterlimit: 10;
        stroke-width: 2px;
      }

      .cls-4, .cls-3 {
        fill: #fff;
      }
    </style>
  </defs>
  <circle class="cls-1" cx="116" cy="115.5" r="110"/>
  <g>
    <path class="cls-4" d="M94.77,39.57c-1.42.05-2.48-.61-3.42-1.58-2.7-2.79-5.43-5.54-8.09-8.36-1.95-2.07-2.04-4.5-.35-6.21,1.76-1.79,4.28-1.64,6.37.48,2.79,2.82,5.54,5.68,8.26,8.56,1.28,1.36,1.75,2.94.91,4.75-.73,1.57-2.01,2.28-3.68,2.37Z"/>
    <path class="cls-4" d="M130.14,39.59c-2.27-.09-3.54-.82-4.33-2.33-.79-1.53-.73-3.14.43-4.33,3.12-3.21,6.28-6.39,9.62-9.35,1.68-1.49,3.75-1.22,5.36.39,1.53,1.53,1.88,3.57.43,5.13-3.15,3.4-6.58,6.55-9.93,9.76-.55.52-1.35.75-1.59.73Z"/>
    <path class="cls-4" d="M116.35,26.5c0,1.81.12,3.63-.03,5.42-.21,2.49-1.95,4.05-4.21,4-2.28-.05-3.88-1.67-3.93-4.22-.08-3.53-.07-7.06-.01-10.59.04-2.48,1.7-4.2,3.92-4.29,2.18-.09,3.99,1.61,4.28,4,.02.17.02.34.02.52,0,1.72,0,3.44,0,5.17h-.04Z"/>
    <g>
      <path class="cls-3" d="M114.82,190.99c-11.23,0-21.93-4.44-30.12-12.52-11.99-11.82-24.08-23.93-35.77-35.64-3.79-3.8-7.59-7.6-11.39-11.4-4.16-4.16-4.39-9.78-.56-13.65,1.77-1.79,4.09-2.77,6.54-2.77,2.59,0,5.13,1.09,7.15,3.08,5.44,5.34,10.93,10.81,16.23,16.1,2.62,2.61,5.24,5.22,7.86,7.83l.34.34c.52.53,1.01,1.02,1.53,1.36.52.33,1.01.5,1.47.5.61,0,1.22-.31,1.82-.91.96-.98,1.07-1.98.36-3.16-.32-.53-.83-1.03-1.37-1.57l-.28-.28c-11.79-11.79-23.58-23.58-35.39-35.34-2.85-2.84-3.86-5.81-3.1-9.07,1-4.29,4.78-7.29,9.19-7.29,1.95,0,3.83.6,5.44,1.75,1.63,1.16,3.08,2.54,4.28,3.73,7.93,7.9,15.84,15.81,23.75,23.73l9.06,9.07.4.41c.39.4.76.78,1.14,1.07.63.49,1.33.75,2.03.75.77,0,1.48-.32,2-.91.96-1.08.85-2.63-.28-3.78-3.57-3.61-7.24-7.25-10.79-10.77-1.54-1.53-3.08-3.06-4.62-4.59l-32.14-31.99c-2.72-2.71-3.64-5.99-2.66-9.5.98-3.5,3.43-5.76,7.08-6.56.69-.15,1.38-.23,2.05-.23,2.65,0,5.09,1.15,7.46,3.53,11.79,11.82,23.61,23.62,35.43,35.41l9.66,9.65c.17.17.35.35.52.53.48.49.93.96,1.41,1.34.58.46,1.21.71,1.83.71.65,0,1.27-.28,1.79-.8,1.02-1.04,1.05-2.41.06-3.65-.3-.38-.67-.74-1.07-1.13l-.43-.42-8.04-8.04c-9.1-9.11-18.2-18.23-27.33-27.32-2.72-2.71-3.73-5.58-3.1-8.79.88-4.47,4.79-7.71,9.3-7.71,2.18,0,4.21.76,5.87,2.21,3.04,2.64,6.97,6.23,10.31,10.56.52.68,1.27,1.26,2.06,1.89.61.48,1.24.98,1.82,1.56,8.15,8.11,16.29,16.24,24.43,24.37l8.41,8.4.42.43c.39.4.77.78,1.16,1.11.61.52,1.19.77,1.77.77h0c.32,0,.65-.07,1-.22,1.14-.49,1.66-1.25,1.67-2.47.02-2.21.02-4.41.02-6.62,0,0,0-5.18,0-6.17,0-2.05-.02-4.09.02-6.14.09-5.28,2.62-8.71,7.13-9.67.58-.12,1.18-.19,1.78-.19,3.75,0,7.04,2.37,8.01,5.76,5.9,20.7,11.13,41.06,10.38,62.46-.32,9.16-3.41,16.84-9.18,22.8-1.16,1.2-2.31,2.4-3.46,3.61-4.65,4.88-9.45,9.92-14.73,14.32-7.86,6.55-17.67,10.16-27.64,10.16Z"/>
      <path class="cls-1" d="M83.58,53.56c1.7,0,3.43.57,4.89,1.84,3.63,3.15,7.13,6.5,10.11,10.35,1.08,1.4,2.74,2.32,4.01,3.59,10.96,10.91,21.89,21.84,32.83,32.77.55.55,1.08,1.12,1.67,1.62.84.71,1.76,1.12,2.74,1.12.51,0,1.04-.11,1.59-.35,1.68-.72,2.56-2.02,2.58-3.83.04-3.28,0-6.56.01-9.85,0-3.02-.04-6.05.01-9.07.08-4.6,2.15-7.42,5.94-8.23.49-.1.98-.15,1.47-.15,2.94,0,5.75,1.8,6.56,4.67,5.78,20.27,11.08,40.63,10.32,62-.29,8.35-2.92,15.77-8.76,21.82-5.88,6.08-11.57,12.4-18.07,17.82-7.87,6.56-17.3,9.81-26.68,9.81-10.49,0-20.93-4.06-29.06-12.09-15.81-15.59-31.45-31.34-47.15-47.04-3.58-3.59-3.77-8.28-.55-11.54,1.53-1.54,3.47-2.33,5.47-2.33,2.11,0,4.29.87,6.1,2.65,8.08,7.93,16.06,15.95,24.09,23.92.67.67,1.33,1.39,2.12,1.89.77.5,1.54.74,2.28.74,1.03,0,2.01-.47,2.89-1.36,1.43-1.46,1.63-3.22.57-4.98-.48-.8-1.21-1.46-1.87-2.13-11.79-11.79-23.58-23.58-35.39-35.34-2.15-2.14-3.42-4.59-2.7-7.67.89-3.8,4.23-6.14,7.73-6.14,1.56,0,3.15.46,4.57,1.47,1.47,1.04,2.81,2.3,4.09,3.57,10.95,10.92,21.88,21.86,32.81,32.79.55.55,1.07,1.14,1.68,1.61.92.71,1.95,1.06,2.95,1.06,1.17,0,2.29-.48,3.12-1.41,1.46-1.63,1.41-4.07-.33-5.83-5.1-5.16-10.27-10.25-15.42-15.37-10.71-10.66-21.43-21.33-32.14-31.99-2.26-2.25-3.15-4.91-2.28-8.03.85-3.03,2.95-4.84,5.95-5.49.6-.13,1.18-.19,1.73-.19,2.46,0,4.53,1.21,6.4,3.09,15.01,15.04,30.06,30.05,45.09,45.06.67.67,1.31,1.39,2.05,1.97.87.69,1.83,1.03,2.76,1.03,1.04,0,2.05-.42,2.86-1.25,1.55-1.57,1.63-3.78.17-5.63-.48-.61-1.07-1.13-1.61-1.68-11.78-11.79-23.56-23.6-35.37-35.37-2.1-2.09-3.27-4.46-2.69-7.44.78-3.97,4.26-6.5,7.83-6.5M83.58,50.56c-5.23,0-9.76,3.75-10.77,8.92-.72,3.69.46,7.1,3.51,10.14,9.1,9.07,18.34,18.32,27.27,27.27l8.09,8.1c.15.15.29.29.44.43.36.35.7.68.94.99.75.95.26,1.45.05,1.67-.35.35-.63.35-.72.35-.27,0-.58-.13-.89-.38-.41-.32-.82-.75-1.27-1.21-.18-.18-.35-.36-.53-.54l-9.8-9.79c-11.57-11.55-23.54-23.5-35.29-35.27-2.66-2.67-5.45-3.97-8.52-3.97-.78,0-1.57.09-2.37.26-4.17.91-7.08,3.61-8.2,7.62-1.14,4.06-.08,7.85,3.05,10.96l14.49,14.42,17.65,17.57c1.53,1.52,3.06,3.04,4.6,4.56,3.55,3.53,7.23,7.17,10.8,10.79.58.59.67,1.23.23,1.72-.24.27-.54.41-.89.41-.36,0-.75-.15-1.11-.43-.3-.23-.64-.58-.99-.94-.14-.14-.28-.28-.41-.42l-8.92-8.92c-7.96-7.96-15.92-15.93-23.9-23.87-1.24-1.24-2.75-2.67-4.47-3.89-1.87-1.32-4.05-2.02-6.31-2.02-5.11,0-9.49,3.48-10.65,8.45-.88,3.76.3,7.29,3.5,10.48,11.42,11.38,22.78,22.74,35.39,35.34l.29.28c.47.47.92.91,1.14,1.28.35.59.33.85-.15,1.33-.14.14-.48.46-.74.46-.16,0-.4-.1-.66-.26-.38-.25-.82-.69-1.28-1.16l-.34-.34c-2.63-2.61-5.25-5.22-7.87-7.83-5.31-5.29-10.79-10.76-16.24-16.1-2.3-2.26-5.22-3.51-8.2-3.51s-5.56,1.14-7.61,3.22c-4.38,4.43-4.14,11.06.57,15.77,3.78,3.78,7.56,7.56,11.33,11.34,11.71,11.73,23.83,23.86,35.83,35.71,8.47,8.35,19.54,12.95,31.17,12.95,10.32,0,20.48-3.73,28.6-10.51,5.35-4.46,10.18-9.53,14.86-14.44,1.15-1.2,2.29-2.41,3.45-3.6,6.03-6.24,9.26-14.25,9.6-23.79.76-21.62-4.5-42.1-10.43-62.92-1.15-4.03-5.03-6.85-9.45-6.85-.7,0-1.41.07-2.09.22-5.18,1.1-8.21,5.15-8.32,11.11-.04,2.07-.03,4.15-.02,6.17,0,.98,0,1.96,0,2.95,0,1.06,0,2.13,0,3.19,0,2.18,0,4.43-.02,6.63,0,.62-.17.85-.76,1.11-.16.07-.3.1-.41.1-.26,0-.58-.23-.81-.42-.33-.28-.68-.64-1.05-1.01-.14-.15-.29-.29-.43-.44l-8.33-8.32c-8.03-8.02-16.32-16.31-24.5-24.45-.65-.64-1.31-1.17-1.96-1.67-.72-.56-1.39-1.1-1.8-1.63-3.43-4.43-7.42-8.09-10.52-10.77-1.94-1.69-4.31-2.58-6.85-2.58h0Z"/>
    </g>
    <g>
      <path class="cls-2" d="M139.7,196.72c-2.9,0-5.93-.27-9.01-.8-.39-.07-.68-.2-1.06-.38-.18-.08-.41-.19-.72-.32l-3.25-1.35,3.22-1.41c11.1-4.84,18.82-13.47,26.3-21.81,1.86-2.07,3.78-4.22,5.72-6.27,5.45-5.76,8.42-13.57,8.82-23.22.41-9.76-.37-20.08-2.54-33.46-1.18-7.27-.58-14.67,0-21.83l.06-.74c.3-3.72,3.65-6.79,7.8-7.15.25-.02.5-.03.75-.03,3.82,0,7.17,2.37,8.13,5.77,5.22,18.3,10.33,37.87,10.56,58.27.15,12.68-4,22.65-12.69,30.47-2.43,2.19-4.77,4.59-7.03,6.91-1.52,1.56-3.1,3.18-4.7,4.73-8.63,8.36-18.85,12.6-30.39,12.6Z"/>
      <path class="cls-1" d="M175.8,79.46c2.98,0,5.88,1.83,6.69,4.68,5.4,18.94,10.28,37.97,10.51,57.88.14,11.63-3.43,21.45-12.19,29.34-4.1,3.69-7.8,7.83-11.77,11.68-8.51,8.25-18.34,12.18-29.34,12.18-2.84,0-5.76-.26-8.75-.78-.31-.05-.6-.24-1.46-.6,14.2-6.2,22.72-18.08,32.51-28.42,6.25-6.6,8.85-15.11,9.23-24.19.48-11.35-.74-22.56-2.56-33.76-1.19-7.34-.52-14.82.08-22.21.26-3.18,3.22-5.5,6.43-5.78.21-.02.41-.03.62-.03M175.8,76.46c-.29,0-.59.01-.87.04-4.87.42-8.81,4.08-9.17,8.52l-.06.74c-.59,7.25-1.2,14.74.01,22.19,2.15,13.27,2.93,23.5,2.52,33.15-.39,9.28-3.22,16.77-8.41,22.25-1.96,2.07-3.89,4.22-5.75,6.3-7.7,8.6-14.98,16.72-25.78,21.43l-6.45,2.81,6.5,2.7c.29.12.5.22.67.3.42.19.85.39,1.43.49,3.16.55,6.28.82,9.26.82,11.94,0,22.51-4.38,31.43-13.02,1.62-1.57,3.2-3.19,4.73-4.76,2.24-2.3,4.57-4.69,6.96-6.84,9.02-8.13,13.34-18.47,13.18-31.61-.24-20.59-5.38-40.27-10.62-58.67-1.15-4.04-5.09-6.86-9.58-6.86h0Z"/>
    </g>
    <g>
      <path class="cls-2" d="M134.78,91.57c-.3-.25-.54-.46-.74-.62-.39-.33-.66-.55-.9-.8-2.36-2.36-4.72-4.72-7.08-7.08-5.95-5.95-12.11-12.11-18.21-18.12-.7-.69-1.6-1.75-1.44-3.05.16-1.27,1.22-2.04,2.13-2.57,1.56-.91,3.33-1.39,5.11-1.39,2.41,0,4.65.89,6.31,2.5,3.65,3.54,7.27,7.22,10.77,10.78,1.77,1.8,3.54,3.59,5.31,5.38.84.85,1.25,1.88,1.24,3.15-.03,2.42-.02,4.84-.02,7.49v6.45s-2.47-2.12-2.47-2.12Z"/>
      <path class="cls-1" d="M113.64,59.44c1.92,0,3.81.66,5.26,2.08,5.44,5.29,10.71,10.76,16.06,16.14.59.6.81,1.25.8,2.08-.04,3.36-.01,6.72-.01,10.69-.82-.7-1.22-1-1.56-1.34-8.43-8.41-16.82-16.86-25.3-25.21-1.52-1.5-1.27-2.28.39-3.25,1.33-.78,2.85-1.19,4.36-1.19M113.64,56.44h0c-2.05,0-4.08.55-5.87,1.59-.71.41-2.59,1.51-2.86,3.68-.27,2.19,1.34,3.78,1.88,4.31,6.08,5.98,12.22,12.12,18.15,18.06,2.38,2.38,4.76,4.76,7.14,7.13.31.31.62.57,1.01.89.2.16.43.36.72.61l4.95,4.24v-9.71c0-2.6-.01-5.06.01-7.47.02-1.67-.55-3.09-1.67-4.23-1.77-1.78-3.53-3.57-5.3-5.36-3.51-3.57-7.14-7.26-10.8-10.81-1.94-1.89-4.55-2.92-7.36-2.92h0Z"/>
    </g>
  </g>
</svg>