<?xml version="1.0" encoding="UTF-8"?>
<svg id="Layer_1" data-name="Layer 1" xmlns="http://www.w3.org/2000/svg" viewBox="0 0 160 160">
  <defs>
    <style>
      .cls-1 {
        fill: #6fad54;
        stroke-width: 0px;
      }

      .cls-2 {
        fill: #d3f7c1;
      }

      .cls-2, .cls-3, .cls-4 {
        stroke: #18510f;
        stroke-linecap: round;
        stroke-linejoin: round;
        stroke-width: 3px;
      }

      .cls-3 {
        fill: #c8e8ba;
      }

      .cls-4 {
        fill: #639e47;
      }
    </style>
  </defs>
  <circle class="cls-1" cx="80" cy="80" r="80"/>
  <g>
    <g>
      <path class="cls-2" d="M122.02,105.41s-7.7-8.15-6.34-20.37c0,0-13.58-18.34-15.62-31.24-2.04-12.9-14.49-8.15-14.94-2.26s4.98,29.65,4.98,29.65c-8.44-6.69-16.89-13.38-25.33-20.07-3.61-2.86-7.22-5.72-10.83-8.59-3.8-3.01-6.94-6.43-12.17-6.09-1.68.11-3.31.65-4.43,1.96-.8.93-2.78,5.82-1.56,6.77,0,0-7.92-6.11-12.34-1.24s0,11.66,2.04,13.69c0,0-5.12-1.19-7.58,4.3-2.18,4.85,6.11,12.34,9.28,14.37,0,0-4.41,0-6.45,5.09s3.28,9.73,6.79,12.34,46.52,32.94,46.52,32.94c0,0,14.26-.34,19.81,5.66,0,0,29.43-7.92,28.18-36.9Z"/>
      <line class="cls-4" x1="35.78" y1="55.15" x2="79.32" y2="89.13"/>
      <line class="cls-4" x1="25.48" y1="67.6" x2="67.34" y2="97.58"/>
      <line class="cls-4" x1="27.18" y1="86.28" x2="62.98" y2="110.55"/>
    </g>
    <g>
      <path class="cls-3" d="M141.46,105.41s-7.7-8.15-6.34-20.37c0,0-13.58-18.34-15.62-31.24-2.04-12.9-14.49-8.15-14.94-2.26s4.98,29.65,4.98,29.65c-8.44-6.69-16.89-13.38-25.33-20.07-3.61-2.86-7.22-5.72-10.83-8.59-3.8-3.01-6.94-6.43-12.17-6.09-1.68.11-3.31.65-4.43,1.96-.8.93-2.78,5.82-1.56,6.77,0,0-7.92-6.11-12.34-1.24-4.41,4.87,0,11.66,2.04,13.69,0,0-5.12-1.19-7.58,4.3-2.18,4.85,6.11,12.34,9.28,14.37,0,0-4.41,0-6.45,5.09-2.04,5.09,3.28,9.73,6.79,12.34s46.52,32.94,46.52,32.94c0,0,14.26-.34,19.81,5.66,0,0,29.43-7.92,28.18-36.9Z"/>
      <line class="cls-3" x1="55.22" y1="55.15" x2="98.76" y2="89.13"/>
      <line class="cls-3" x1="44.92" y1="67.6" x2="86.78" y2="97.58"/>
      <line class="cls-3" x1="46.62" y1="86.28" x2="82.42" y2="110.55"/>
    </g>
    <line class="cls-4" x1="46.69" y1="31.24" x2="36.73" y2="15.65"/>
    <line class="cls-4" x1="57.88" y1="30.24" x2="58.8" y2="9.48"/>
    <line class="cls-4" x1="69.17" y1="31.97" x2="79.34" y2="17.26"/>
  </g>
</svg>