<?xml version="1.0" encoding="UTF-8"?>
<svg id="Layer_1" data-name="Layer 1" xmlns="http://www.w3.org/2000/svg" viewBox="0 0 230 230">
  <defs>
    <style>
      .cls-1, .cls-2 {
        stroke-width: 0px;
      }

      .cls-3 {
        fill: #718aee;
        stroke: #000;
        stroke-miterlimit: 10;
        stroke-width: 2px;
      }

      .cls-2 {
        fill: #f7bd2c;
      }
    </style>
  </defs>
  <g>
    <path class="cls-2" d="M148.16,159.74c-6.49-.03-12.98-.03-19.46-.03h-15.41c-3.27,0-6.53,0-9.8,0-4.02,0-8.03-.06-12.05-.1-1.79-.02-3.58-.04-5.37-.06-.08.01-.16.03-.24.04-.33.06-.69.13-1.11.13-.65,0-1.24.01-1.77.01-6.1,0-6.77-1.26-7.19-7.12l-.06-.83c-.43-5.81-2.74-11.26-7.25-17.14-1.82-2.36-3.33-4.23-4.77-5.87-14.8-16.89-17.96-37.28-9.4-60.62,5.57-15.18,16.12-26.58,31.36-33.89.26-.25.6-.41.96-.46l.56-.29c9.41-4.33,18.87-6.51,28.19-6.51,10.08,0,20.17,2.54,29.99,7.56,32.85,16.77,40.7,51.84,31.47,77.82-2.56,7.21-7.5,13.07-11.87,18.25-5.25,6.23-8.99,11.78-10.13,18.65-.27,1.6-.41,3.23-.44,4.84-.05,3.73-2.13,5.62-6.16,5.62h-.06ZM116.08,42.27c-3.66,0-3.78,2.05-3.82,2.73-.09,1.48.3,2.9,3.7,3.17l1.44.11c1.86.14,3.78.28,5.67.61,20.79,3.64,35.75,20.66,36.37,41.38.04,1.37.46,3.66,2.83,3.66.1,0,.2,0,.3-.01,2.47-.18,2.77-2.52,2.72-3.89-.13-3.78-.55-7.08-1.31-10.09-5.29-21.2-23.09-35.61-46.45-37.61-.17-.01-.79-.06-1.4-.06l-.05-1.5v1.5Z"/>
    <path class="cls-1" d="M115.37,28.5c9.86,0,19.65,2.46,29.3,7.39,30.56,15.61,40.25,49.2,30.74,75.98-2.43,6.85-7.01,12.33-11.6,17.78-4.83,5.73-9.19,11.73-10.47,19.37-.28,1.67-.43,3.38-.46,5.07-.04,3.18-1.74,4.14-4.66,4.14-.02,0-.04,0-.06,0-6.47-.03-12.94-.03-19.41-.03-5.12,0-10.25,0-15.37,0-3.3,0-6.6,0-9.89,0-5.84,0-11.69-.11-17.53-.17-.42.06-.83.17-1.25.17-.64,0-1.22.01-1.76.01-5.55,0-5.31-.64-5.75-6.56-.51-6.83-3.48-12.63-7.56-17.94-1.55-2.02-3.15-4.02-4.83-5.94-15.58-17.78-16.87-37.97-9.12-59.12,5.56-15.15,16.2-26.23,30.91-33.2.05-.12.13-.18.23-.18.04,0,.08,0,.13.03.3-.16.6-.31.91-.47,9.19-4.22,18.37-6.34,27.5-6.34M162.26,95.43c.13,0,.27,0,.41-.02,2.63-.2,4.22-2.2,4.11-5.44-.12-3.5-.5-6.98-1.35-10.4-5.44-21.8-23.51-36.66-47.77-38.74-.04,0-.78-.07-1.52-.07-.02,0-.04,0-.05,0-3.27,0-5.16,1.48-5.32,4.14-.17,2.89,1.54,4.47,5.07,4.76,2.33.19,4.67.3,6.97.71,18.88,3.31,34.5,19.02,35.12,39.95.1,3.28,1.8,5.11,4.34,5.11M115.37,25.5c-9.54,0-19.22,2.22-28.75,6.61l-.07.03-.07.03-.2.1-.16.08c-.49.11-.94.33-1.32.64-15.5,7.48-26.24,19.13-31.93,34.63-8.76,23.89-5.51,44.8,9.68,62.13,1.42,1.62,2.91,3.46,4.7,5.79,4.33,5.64,6.54,10.83,6.95,16.34l.06.83c.22,3.04.36,5.04,1.78,6.6,1.61,1.77,3.98,1.91,6.91,1.91.54,0,1.14,0,1.79-.01.54,0,1.01-.09,1.36-.16.03,0,.06-.01.09-.02,1.74.02,3.47.04,5.21.06,3.96.05,8.05.1,12.09.1,3.3,0,6.6,0,9.9,0h7.69s7.68,0,7.68,0c5.69,0,12.44,0,19.39.03h.07c6.58,0,7.63-4.45,7.66-7.1.02-1.54.16-3.09.42-4.62,1.09-6.53,4.71-11.89,9.8-17.93,4.45-5.27,9.49-11.25,12.14-18.71,5.05-14.22,4.92-29.92-.35-44.23-5.7-15.45-16.71-27.71-31.85-35.43-10.03-5.12-20.35-7.72-30.67-7.72h0ZM162.26,92.43c-.38,0-1.27,0-1.34-2.2-.32-10.76-4.3-20.62-11.5-28.51-6.81-7.47-16.08-12.55-26.11-14.3-1.96-.34-3.92-.49-5.8-.63-.48-.04-.96-.07-1.44-.11-2.41-.2-2.37-.84-2.32-1.59.03-.52.08-1.32,2.33-1.32.29,0,.71.01,1.31.06h.04c22.69,1.96,39.96,15.93,45.09,36.48.73,2.91,1.14,6.1,1.26,9.78.08,2.24-.91,2.32-1.33,2.35-.06,0-.13,0-.19,0h0Z"/>
  </g>
  <path class="cls-3" d="M115.21,192.95c3.94,0,7.88.08,11.81-.03,1.8-.05,2.44.46,2.24,2.34-.67,6.4-6.78,11.66-13.84,11.76-7.29.11-13.55-4.99-14.34-11.5-.24-2.01.29-2.64,2.31-2.57,3.93.13,7.87.04,11.81.04v-.03Z"/>
  <path class="cls-3" d="M142.14,167.11c-6.91.1-13.83.01-20.74.05-9.25.04-18.49.13-27.74.2-2.01-.07-4.02-.09-6.02-.23-1.54-.1-2.06.56-2.03,2.04.06,3.18-.05,6.37.04,9.55.09,3.19,1.63,4.85,4.84,5.2,1.46.16,2.96-.03,4.43-.06,7.55.05,15.1.12,22.64.15,7.02.03,14.04.07,21.06-.02,4.28-.06,5.97-1.87,6-6.08.02-2.77-.12-5.54.04-8.3.12-2-.61-2.53-2.54-2.5Z"/>
</svg>