<?xml version="1.0" encoding="UTF-8"?>
<svg id="Layer_1" data-name="Layer 1" xmlns="http://www.w3.org/2000/svg" viewBox="0 0 230 230">
  <defs>
    <style>
      .cls-1 {
        fill: #6184E5;
        stroke-width: 0px;
      }

      .cls-2 {
        fill: #fff;
        stroke-width: 2px;
      }

      .cls-2, .cls-3 {
        stroke: #374266;
        stroke-miterlimit: 10;
      }

      .cls-3 {
        fill: #f7bd2c;
        stroke-width: 3px;
      }
    </style>
  </defs>
  <circle class="cls-1" cx="117" cy="115.5" r="110"/>
  <g>
    <path class="cls-3" d="M146.68,34.89c-18.59-9.49-37.7-9.84-56.8-1.06-.3.16-.6.31-.91.47-.17-.06-.29-.01-.36.15-14.71,6.97-25.35,18.04-30.91,33.2-7.76,21.15-6.46,41.34,9.12,59.12,1.68,1.92,3.27,3.92,4.83,5.94,4.08,5.31,7.05,11.11,7.56,17.94.48,6.49.14,6.64,7.5,6.55.42,0,.83-.11,1.25-.17,5.84.06,11.69.16,17.53.17,14.89.02,29.78-.03,44.67.04,2.96.01,4.68-.95,4.72-4.14.02-1.69.18-3.4.46-5.07,1.28-7.64,5.63-13.63,10.47-19.37,4.6-5.45,9.17-10.93,11.6-17.78,9.51-26.78-.18-60.38-30.74-75.98ZM164.67,94.42c-2.76.21-4.64-1.64-4.75-5.1-.62-20.93-16.24-36.64-35.12-39.95-2.29-.4-4.64-.52-6.97-.71-3.53-.29-5.25-1.87-5.07-4.76.16-2.67,2.08-4.15,5.38-4.14.74,0,1.48.07,1.52.07,24.26,2.08,42.33,16.94,47.77,38.74.85,3.42,1.23,6.9,1.35,10.4.11,3.24-1.48,5.24-4.11,5.44Z"/>
    <path class="cls-2" d="M117.21,191.95c3.94,0,7.88.08,11.81-.03,1.8-.05,2.44.46,2.24,2.34-.67,6.4-6.78,11.66-13.84,11.76-7.29.11-13.55-4.99-14.34-11.5-.24-2.01.29-2.64,2.31-2.57,3.93.13,7.87.04,11.81.04v-.03Z"/>
    <path class="cls-2" d="M144.14,166.11c-6.91.1-13.83.01-20.74.05-9.25.04-18.49.13-27.74.2-2.01-.07-4.02-.09-6.02-.23-1.54-.1-2.06.56-2.03,2.04.06,3.18-.05,6.37.04,9.55.09,3.19,1.63,4.85,4.84,5.2,1.46.16,2.96-.03,4.43-.06,7.55.05,15.1.12,22.64.15,7.02.03,14.04.07,21.06-.02,4.28-.06,5.97-1.87,6-6.08.02-2.77-.12-5.54.04-8.3.12-2-.61-2.53-2.54-2.5Z"/>
  </g>
</svg>