<?xml version="1.0" encoding="utf-8"?>
<!-- Generator: Adobe Illustrator 28.1.0, SVG Export Plug-In . SVG Version: 6.00 Build 0)  -->
<svg version="1.1" id="Layer_1" xmlns="http://www.w3.org/2000/svg" xmlns:xlink="http://www.w3.org/1999/xlink" x="0px" y="0px"
	 viewBox="0 0 114.4 127" style="enable-background:new 0 0 114.4 127;" xml:space="preserve">
<style type="text/css">
	.st0{fill:#DDB9DB;stroke:#493D57;stroke-width:3;stroke-linecap:round;stroke-linejoin:round;}
	.st1{fill:#493D57;}
	.st2{fill:none;stroke:#493D57;stroke-width:3;stroke-linecap:round;stroke-linejoin:round;}
	.st3{fill:#BBAAD0;stroke:#493D57;stroke-width:3;stroke-linecap:round;stroke-linejoin:round;}
</style>
<path class="st0" d="M42.9,4.2c5.3-1.8,11-2.7,16.9-2.7c29.3,0,53.1,23.8,53.1,53.1s-23.8,53.1-53.1,53.1S6.7,83.9,6.7,54.6
	C6.7,31.2,21.8,11.3,42.9,4.2"/>
<path class="st0" d="M12,92.4c0,0,9.7-4.5,11.1-12.6c1.5-8.2,3.7-17.8,10.4-17.1c6.7,0.7,5.2,7.1,5.2,7.1L39,84.6l29.6-5.6
	c0,0,5.2,1.1,5.6,5.2c0.4,4.1-1.5,6.7-14.5,8.2c0,0,4.5,18.2-1.5,25.7c-5.9,7.4-40.5,3.3-40.5,3.3S9.8,113.6,12,92.4L12,92.4z"/>
<circle class="st1" cx="41.1" cy="36" r="5.2"/>
<circle class="st1" cx="77.3" cy="41.1" r="5.2"/>
<line class="st2" x1="48.1" y1="58" x2="63.4" y2="58"/>
<path class="st3" d="M72.9,26.8c0,0,10.1-3.6,16.5,5.8"/>
<path class="st3" d="M29.7,21c0,0,6.3-8.6,17-4.4"/>
</svg>
