<?xml version="1.0" encoding="UTF-8"?>
<svg id="Layer_1" data-name="Layer 1" xmlns="http://www.w3.org/2000/svg" viewBox="0 0 230 230">
  <defs>
    <style>
      .cls-1 {
        fill: #353535;
      }

      .cls-1, .cls-2, .cls-3 {
        stroke-miterlimit: 10;
      }

      .cls-1, .cls-2, .cls-3, .cls-4 {
        stroke: #000;
        stroke-width: 2px;
      }

      .cls-2 {
        fill: #fff;
        opacity: .12;
      }

      .cls-3 {
        fill: #ffcc3e;
      }

      .cls-4 {
        fill: none;
        stroke-linecap: round;
        stroke-linejoin: round;
      }
    </style>
  </defs>
  <g>
    <circle class="cls-3" cx="114.93" cy="111.8" r="75.28" transform="translate(-45.39 114.01) rotate(-45)"/>
    <g>
      <g>
        <path class="cls-1" d="M135.11,93.9c-1.15-7.06,1.8-13.42,6.58-14.2,4.78-.78,9.59,4.32,10.73,11.39,1.15,7.06-1.8,13.42-6.58,14.19-4.78.78-9.59-4.32-10.73-11.39Z"/>
        <circle class="cls-2" cx="142.86" cy="86.85" r="5.25" transform="translate(-10.71 152.96) rotate(-54.59)"/>
      </g>
      <g>
        <path class="cls-1" d="M101.33,99.38c-1.15-7.06-5.95-12.16-10.73-11.39-4.78.78-7.73,7.13-6.58,14.19,1.15,7.06,5.95,12.16,10.73,11.39,4.78-.78,7.73-7.13,6.58-14.2Z"/>
        <circle class="cls-2" cx="91.79" cy="95.14" r="5.25" transform="translate(-38.95 114.73) rotate(-54.55)"/>
      </g>
    </g>
    <path class="cls-4" d="M106.96,127.22s11.55-10.24,21.66-11.88c10.12-1.64,13.61,6.16,13.61,6.16"/>
    <path class="cls-4" d="M127.47,63.35s9.34-4.1,22.96,2.28"/>
    <path class="cls-4" d="M100.72,81.69s-9.9-2.45-22.23,6.17"/>
  </g>
  <g>
    <path class="cls-3" d="M169.28,139.89c-.86-1.73-8.85-17.22-9.7-18.84-1.94-3.7-6.52-5.12-10.22-3.18-3.7,1.94-5.12,6.52-3.18,10.22.24.46,2.32,4.63,4.51,9.05l-14.78-.65-33.66-2.9c-4.16-.36-7.83,2.73-8.19,6.89-.34,3.96,2.45,7.44,6.31,8.08l29.73,2.62v.2c-4.03-.07-7.44,3.02-7.69,7.08-.24,3.9,2.53,7.25,6.3,7.89-3.67.32-6.66,3.26-6.89,7.05-.25,4.04,2.73,7.51,6.71,7.95-3.91.06-7.19,3.09-7.44,7.07-.25,4.04,2.74,7.51,6.71,7.95h0s.16.03.16.03c.07,0,.14.03.21.04v-.02s6.23.54,6.23.54v.03s3.12.5,7.76.64l1.39.12c.63.05,1.24,0,1.84-.09,13.58-.15,35.13-4.05,37.1-26.92,1.5-17.41-4.93-26.35-13.24-30.83Z"/>
    <path class="cls-4" d="M180.27,151.98c-2.43-5.82-6.43-9.63-10.99-12.09-.86-1.73-8.85-17.22-9.7-18.84-1.94-3.7-6.52-5.12-10.22-3.18-3.7,1.94-5.12,6.52-3.18,10.22.24.46,2.32,4.63,4.51,9.05l-14.78-.65-33.66-2.9c-4.16-.36-7.83,2.73-8.19,6.89-.34,3.96,2.45,7.44,6.31,8.08l29.73,2.62v.2c-4.03-.07-7.44,3.02-7.69,7.08-.24,3.9,2.53,7.25,6.3,7.89-3.67.32-6.66,3.26-6.89,7.05-.25,4.04,2.73,7.51,6.71,7.95-3.91.06-7.19,3.09-7.44,7.07"/>
  </g>
</svg>