<?xml version="1.0" encoding="UTF-8"?>
<svg id="Layer_1" data-name="Layer 1" xmlns="http://www.w3.org/2000/svg" viewBox="0 0 152.4 192.37">
  <defs>
    <style>
      .cls-1 {
        fill: #493d57;
        stroke-width: 0px;
      }

      .cls-2 {
        fill: #bbaad0;
      }

      .cls-2, .cls-3, .cls-4 {
        stroke: #493d57;
        stroke-linecap: round;
        stroke-linejoin: round;
        stroke-width: 3px;
      }

      .cls-3 {
        fill: #ddb9db;
      }

      .cls-4 {
        fill: none;
      }
    </style>
  </defs>
  <path class="cls-3" d="M80.92,4.23c5.3-1.77,10.97-2.73,16.86-2.73,29.33,0,53.11,23.78,53.11,53.11s-23.78,53.11-53.11,53.11-53.11-23.78-53.11-53.11c0-23.44,15.18-43.33,36.25-50.38"/>
  <path class="cls-3" d="M50.05,92.44s9.67-4.46,11.15-12.64c1.49-8.18,3.72-17.85,10.41-17.1,6.69.74,5.21,7.06,5.21,7.06l.14,14.87,29.6-5.58s5.21,1.12,5.58,5.21c.37,4.09-1.49,6.69-14.5,8.18,0,0,4.46,18.22-1.49,25.65-5.95,7.44-40.53,3.35-40.53,3.35,0,0-7.81-7.81-5.58-29Z"/>
  <circle class="cls-1" cx="79.11" cy="35.95" r="5.16"/>
  <circle class="cls-1" cx="115.3" cy="41.12" r="5.16"/>
  <line class="cls-4" x1="86.13" y1="58.01" x2="101.42" y2="58.01"/>
  <path class="cls-2" d="M110.95,26.78s10.1-3.62,16.54,5.83"/>
  <path class="cls-2" d="M67.7,21.05s6.35-8.65,16.98-4.42"/>
</svg>