<?xml version="1.0" encoding="UTF-8"?>
<svg id="Layer_1" data-name="Layer 1" xmlns="http://www.w3.org/2000/svg" viewBox="0 0 160 160">
  <defs>
    <style>
      .cls-1 {
        fill: #55bde5;
        stroke: #074c7b;
        stroke-linecap: round;
        stroke-linejoin: round;
        stroke-width: 3px;
      }

      .cls-2 {
        fill: #21699e;
        stroke-width: 0px;
      }
    </style>
  </defs>
  <circle class="cls-2" cx="80" cy="80" r="80"/>
  <path class="cls-1" d="M133.89,69.9s14.56,27.51-3.24,56.64l-28.32-.81s-9.71,8.09-17.8,9.71-38.84,3.24-45.31,1.62-7.08-16.39-1.62-18.61c0,0-6.07-3.03-6.47-7.89-.4-4.85,3.03-8.5,3.03-8.5,0,0-7.69-.4-8.9-8.29-1.21-7.89,5.46-9.71,5.46-9.71,0,0-10.32-2.43-10.32-11.73s9.1-11.33,9.1-11.33h51.58s-13.15-14.97-14.77-20.84c-1.62-5.87-2.02-19.62-1.21-22.86s2.63-5.87,9.1-5.87,10.92,18,10.92,18l36.21,39.45s9.31,0,12.54,1.01Z"/>
</svg>