<?xml version="1.0" encoding="UTF-8"?>
<svg id="Layer_1" data-name="Layer 1" xmlns="http://www.w3.org/2000/svg" viewBox="0 0 230 230">
  <defs>
    <style>
      .cls-1 {
        fill: #020201;
      }

      .cls-1, .cls-2, .cls-3, .cls-4, .cls-5 {
        stroke-width: 0px;
      }

      .cls-2 {
        fill: #d1dfe3;
      }

      .cls-3 {
        fill: #33b8ee;
      }

      .cls-4 {
        fill: #fbcd96;
      }

      .cls-5 {
        fill: #fbd3a5;
      }
    </style>
  </defs>
  <path class="cls-4" d="M82.01,181.72c-2.87-.03-5.74-.06-8.62-.09,3.82-3.4,5.99-7.56,5.7-12.78-.19-3.4-1.57-6.34-3.76-8.99,4.81-2.03,8.02-5.4,9.3-10.36,1.3-5.02-.09-9.51-3.29-13.51,5.97-2.72,9.5-7.1,9.66-13.59.16-6.9-3.45-11.55-9.65-14.41,4.71-6.02,4.99-12.29.81-18.83,4.87,0,9.46.01,14.06,0,3.11,0,4.33-1.6,3.43-4.54-2.28-7.43-4.11-14.96-5.04-22.68-.74-6.08-1.1-12.14.9-18.08,1.45-4.29,3.59-8.11,7.85-10.19,8-3.9,15.28,2.13,14.62,8.87-.22,2.2.14,4.47.35,6.69.98,10.09,5.32,18.25,13.92,23.9,2.54,1.67,5.07,3.36,7.62,5.02,5.93,3.83,11.36,8.23,15.83,13.76.76.94,1.03,1.85,1.03,3.03-.03,22.57-.02,45.13-.02,67.7,0,9.89-6.16,16.07-16.02,16.07-18.28,0-36.55,0-54.83,0-2.63,0-3.36.58-3.88,3ZM140.34,133.94c.12,0,.25,0,.37,0,2.79.04,4.05-.85,4.1-2.9.05-2.07-1.17-3-3.94-3.08-7.95-.22-14.88-3.05-20.86-8.25-5.33-4.63-9.25-10.35-12.59-16.51-1.06-1.95-2.74-2.53-4.31-1.63-1.56.89-1.92,2.61-.89,4.52,2.8,5.23,6.1,10.1,10.16,14.43,7.59,8.08,16.73,12.94,27.96,13.41Z"/>
  <path class="cls-1" d="M82.01,181.72c.52-2.42,1.25-2.99,3.88-3,18.28,0,36.55,0,54.83,0,9.86,0,16.02-6.18,16.02-16.07,0-22.57,0-45.13.02-67.7,0-1.17-.27-2.08-1.03-3.03-4.46-5.53-9.9-9.93-15.83-13.76-2.55-1.65-5.08-3.34-7.62-5.02-8.61-5.66-12.94-13.81-13.92-23.9-.22-2.22-.57-4.49-.35-6.69.66-6.75-6.62-12.77-14.62-8.87-4.26,2.07-6.4,5.89-7.85,10.19-2,5.94-1.64,12.01-.9,18.08.94,7.72,2.76,15.25,5.04,22.68.9,2.94-.32,4.53-3.43,4.54-4.6.01-9.2,0-14.06,0,4.18,6.54,3.9,12.8-.81,18.83,6.2,2.86,9.82,7.51,9.65,14.41-.15,6.49-3.69,10.87-9.66,13.59,3.2,3.99,4.58,8.48,3.29,13.51-1.28,4.96-4.49,8.33-9.3,10.36,2.19,2.65,3.57,5.59,3.76,8.99.29,5.22-1.88,9.38-5.7,12.78-3.44,2.41-7.27,3.22-11.45,3.1-5.03-.15-10.07-.02-15.11-.04-6.61-.02-12.05-3.57-14.36-9.36-2.39-5.99-.92-12.05,4.07-16.78.34-.32,1.02-.43.32-1.24-6.83-7.86-7.25-13-1.8-21.33-6-2.74-9.61-7.26-9.6-13.98,0-6.71,3.6-11.25,9.68-14.01-3.27-4.05-4.58-8.55-3.28-13.62,1.7-6.62,7.56-11.14,14.54-11.16,14.8-.04,29.6-.01,44.4-.01.67,0,1.34,0,2.17,0-1.8-5.71-3.18-11.37-3.95-17.15-1.05-7.85-1.8-15.72.62-23.47,2.08-6.68,5.76-12.12,12.53-14.83,9.73-3.89,20,1.65,21.56,11.69.44,2.81.33,5.7.53,8.55.61,8.8,4.34,15.77,11.89,20.61,5.54,3.55,11.17,6.98,16.15,11.33,1.43,1.25,2.81,2.57,4.38,4.01.05-2.52.63-4.68,2.19-6.48,1.76-2.03,3.96-3.2,6.67-3.21,11.88-.03,23.75-.03,35.63-.01,2.33,0,3.34,1.17,3.34,3.71,0,15.8,0,31.59,0,47.39,0,19.4,0,38.81,0,58.21,0,3.2-.92,4.13-4.07,4.13-11.32,0-22.64,0-33.95,0-5.66,0-9.15-3.17-9.8-8.85-.62-.14-.82.43-1.16.72-3.93,3.36-8.48,5.14-13.64,5.14-18.72.03-37.43.01-56.15,0-2.46,0-3.19-.61-3.71-2.97ZM198.52,130.96c0-16.29-.03-32.58.04-48.88,0-1.58-.41-1.92-1.94-1.91-9.95.07-19.9.04-29.84.04-3.19,0-4.07.88-4.07,4.1,0,31.09,0,62.18,0,93.27,0,3.21.89,4.11,4.08,4.11,9.95,0,19.9-.03,29.84.04,1.54.01,1.94-.34,1.94-1.91-.06-16.29-.04-32.58-.04-48.88ZM58.35,113.04c-5.9,0-11.81-.03-17.71,0-5.33.03-9.23,3.8-9.27,8.88-.04,5.16,3.88,9.01,9.31,9.02,11.68.03,23.36.03,35.04,0,5.46-.01,9.37-3.81,9.36-8.98-.01-5.17-3.93-8.91-9.4-8.93-5.78-.03-11.56,0-17.33,0ZM58.24,136.94c-3.91,0-7.83-.02-11.74,0-5.19.03-9.1,3.8-9.16,8.8-.06,5.12,3.79,9.06,9.05,9.09,7.89.05,15.78.05,23.67,0,5.19-.03,9.04-3.87,9.06-8.89.02-5.11-3.88-8.97-9.14-9-3.91-.02-7.83,0-11.74,0ZM58.19,107.08c3.98,0,7.95.03,11.93,0,5.13-.05,9-3.93,9-8.96,0-5.03-3.86-8.9-9.02-8.93-7.89-.04-15.78-.04-23.67,0-5.19.02-9.06,3.85-9.09,8.86-.03,5.11,3.87,8.99,9.12,9.03,3.91.03,7.83,0,11.74,0ZM55.31,160.82c-2.98,0-5.96-.03-8.95,0-5.16.06-9.02,3.9-9.03,8.92,0,5.02,3.86,8.93,8.98,8.97,5.96.05,11.93.05,17.89,0,5.11-.05,8.97-3.98,8.94-9.02-.03-4.95-3.86-8.8-8.89-8.87-2.98-.04-5.96,0-8.95,0Z"/>
  <path class="cls-1" d="M140.34,133.93c-11.24-.47-20.38-5.33-27.96-13.41-4.07-4.33-7.37-9.21-10.16-14.43-1.02-1.91-.67-3.63.89-4.52,1.57-.89,3.25-.31,4.31,1.63,3.34,6.16,7.26,11.87,12.59,16.51,5.98,5.2,12.91,8.03,20.86,8.25,2.77.08,3.99,1.01,3.94,3.08-.05,2.05-1.31,2.94-4.1,2.9-.12,0-.25,0-.37,0Z"/>
  <path class="cls-3" d="M198.52,130.96c0,16.29-.02,32.58.04,48.88,0,1.57-.4,1.93-1.94,1.91-9.95-.08-19.9-.04-29.84-.04-3.18,0-4.08-.91-4.08-4.11,0-31.09,0-62.18,0-93.27,0-3.22.88-4.1,4.07-4.1,9.95,0,19.9.04,29.84-.04,1.53-.01,1.95.33,1.94,1.91-.06,16.29-.04,32.58-.04,48.88ZM189.56,163.7c-.04-4.85-4.08-8.86-8.95-8.85-4.94,0-8.99,4.1-8.95,9.04.04,4.84,4.11,8.87,8.95,8.87,4.91,0,8.99-4.12,8.95-9.06Z"/>
  <path class="cls-5" d="M58.35,113.04c5.78,0,11.56-.02,17.33,0,5.47.02,9.39,3.76,9.4,8.93.01,5.17-3.89,8.96-9.36,8.98-11.68.03-23.36.03-35.04,0-5.43-.01-9.35-3.86-9.31-9.02.04-5.08,3.94-8.85,9.27-8.88,5.9-.03,11.8,0,17.71,0Z"/>
  <path class="cls-5" d="M58.24,136.94c3.91,0,7.83-.02,11.74,0,5.26.03,9.16,3.89,9.14,9-.02,5.02-3.87,8.86-9.06,8.89-7.89.05-15.78.05-23.67,0-5.25-.03-9.11-3.97-9.05-9.09.06-5,3.97-8.77,9.16-8.8,3.91-.02,7.83,0,11.74,0Z"/>
  <path class="cls-5" d="M58.19,107.08c-3.91,0-7.83.02-11.74,0-5.25-.04-9.14-3.92-9.12-9.03.03-5.02,3.9-8.84,9.09-8.86,7.89-.04,15.78-.04,23.67,0,5.16.03,9.02,3.9,9.02,8.93,0,5.03-3.87,8.91-9,8.96-3.98.04-7.95,0-11.93,0Z"/>
  <path class="cls-5" d="M55.31,160.82c2.98,0,5.96-.04,8.95,0,5.03.07,8.86,3.92,8.89,8.87.03,5.03-3.82,8.97-8.94,9.02-5.96.05-11.93.05-17.89,0-5.13-.04-8.99-3.95-8.98-8.97,0-5.02,3.88-8.86,9.03-8.92,2.98-.03,5.96,0,8.95,0Z"/>
  <path class="cls-1" d="M189.56,163.7c.04,4.93-4.04,9.06-8.95,9.06-4.84,0-8.91-4.03-8.95-8.87-.04-4.94,4.01-9.04,8.95-9.04,4.87,0,8.91,4,8.95,8.85ZM180.66,166.78c1.64-.02,2.93-1.34,2.93-2.99,0-1.66-1.27-2.95-2.94-2.97-1.74-.02-3.08,1.34-3.03,3.07.06,1.65,1.39,2.92,3.03,2.89Z"/>
  <path class="cls-2" d="M180.66,166.78c-1.64.02-2.98-1.25-3.03-2.89-.06-1.73,1.29-3.09,3.03-3.07,1.66.02,2.94,1.31,2.94,2.97,0,1.65-1.29,2.97-2.93,2.99Z"/>
</svg>