<?xml version="1.0" encoding="UTF-8"?>
<svg id="Layer_1" data-name="Layer 1" xmlns="http://www.w3.org/2000/svg" viewBox="0 0 230 230">
  <defs>
    <style>
      .cls-1 {
        fill: #6184E5;
      }

      .cls-1, .cls-2, .cls-3 {
        stroke-width: 0px;
      }

      .cls-2 {
        fill: #fff;
      }

      .cls-3 {
        fill: #33b8ee;
      }
    </style>
  </defs>
  <circle class="cls-1" cx="115" cy="115.5" r="110"/>
  <g>
    <path class="cls-2" d="M84.41,170.77c-2.8-.03-10.47-.06-13.26-.09,3.72-3.32,5.83-4.44,5.55-9.53-.18-3.31-1.53-6.17-3.66-8.75,4.69-1.98,7.81-5.26,9.06-10.1,1.26-4.89-.09-9.27-3.2-13.16,5.81-2.65,9.26-6.92,9.41-13.24.16-6.72-3.36-11.25-9.4-14.03,4.59-5.87,4.86-11.97.79-18.34,4.74,0,9.22,0,13.7,0,3.03,0,4.22-1.56,3.34-4.42-2.22-7.24-4-14.57-4.91-22.09-.72-5.92-1.07-11.83.88-17.61,1.41-4.18,3.5-7.9,7.64-9.92,7.79-3.8,14.89,2.07,14.24,8.64-.21,2.14.13,4.35.34,6.52.95,9.83,5.18,17.77,13.56,23.28,2.48,1.63,4.94,3.28,7.42,4.88,5.78,3.74,11.07,8.01,15.42,13.4.74.92,1.01,1.81,1,2.95-.02,21.98-.02,43.96-.02,65.94,0,9.64-6,15.66-15.6,15.66-17.8,0-35.6,0-53.4,0-2.56,0,1.6-2.36,1.09,0ZM136.35,127.14c.12,0,.24,0,.36,0,2.72.04,3.95-.83,3.99-2.82.04-2.01-1.14-2.92-3.84-3-7.75-.21-14.49-2.97-20.32-8.04-5.19-4.51-9.01-10.08-12.26-16.08-1.03-1.9-2.67-2.46-4.2-1.59-1.52.87-1.87,2.54-.87,4.4,2.72,5.09,5.94,9.84,9.9,14.06,7.39,7.87,16.29,12.6,27.24,13.06Z"/>
    <path class="cls-1" d="M79.54,172.72c.51-2.36,1.21-1.94,3.78-1.94,17.8,0,35.6,0,53.4,0,9.6,0,15.6-6.02,15.6-15.66,0-21.98,0-43.96.02-65.94,0-1.14-.26-2.03-1-2.95-4.35-5.39-9.64-9.67-15.42-13.4-2.49-1.61-4.95-3.26-7.42-4.88-8.38-5.51-12.61-13.45-13.56-23.28-.21-2.17-.55-4.38-.34-6.52.65-6.57-6.45-12.44-14.24-8.64-4.15,2.02-6.24,5.74-7.64,9.92-1.95,5.79-1.6,11.7-.88,17.61.91,7.52,2.69,14.86,4.91,22.09.88,2.86-.31,4.41-3.34,4.42-4.48.01-8.96,0-13.7,0,4.07,6.37,3.8,12.47-.79,18.34,6.04,2.79,9.56,7.31,9.4,14.03-.15,6.32-3.59,10.58-9.41,13.24,3.11,3.89,4.46,8.26,3.2,13.16-1.25,4.84-4.37,8.12-9.06,10.1,2.13,2.58,3.48,5.44,3.66,8.75.28,5.09-1.83,8.16-5.55,11.47-3.35,2.35-7.08,4.11-11.15,3.99-4.9-.14-9.81-.02-14.72-.04-6.44-.02-11.74-3.48-13.99-9.12-2.33-5.83-.89-11.74,3.96-16.34.33-.31.99-.42.31-1.21-6.65-7.65-7.06-12.67-1.75-20.78-5.84-2.66-9.36-7.07-9.35-13.62,0-6.54,3.5-10.96,9.43-13.65-3.19-3.94-4.46-8.33-3.19-13.27,1.66-6.44,7.36-10.85,14.16-10.87,14.42-.04,28.83-.01,43.25-.01.65,0,1.31,0,2.11,0-1.75-5.56-3.1-11.07-3.85-16.7-1.02-7.65-1.75-15.31.6-22.86,2.03-6.51,5.61-11.8,12.21-14.44,9.48-3.79,19.48,1.61,21,11.39.43,2.74.32,5.55.51,8.33.6,8.57,4.23,15.36,11.58,20.08,5.39,3.46,10.88,6.8,15.73,11.04,1.4,1.22,2.74,2.5,4.26,3.9.05-2.45.61-4.56,2.13-6.31,1.71-1.97,3.86-3.12,6.49-3.13,11.57-.03,23.14-.03,34.71-.01,2.27,0,3.25,1.14,3.25,3.62,0,15.39,0,30.77,0,46.16,0,18.9,0,37.8,0,56.7,0,3.11-.89,4.02-3.96,4.02-11.02,0-22.05,0-33.07,0-5.51,0-8.91-3.09-9.55-8.62-.6-.13-.8.42-1.13.7-3.83,3.27-8.26,5-13.29,5.01-18.23.03-36.46.01-54.69,0-2.39,0-3.11-1.57-3.61-3.87ZM193.03,124.25c0-15.87-.02-31.74.04-47.61,0-1.54-.4-1.87-1.89-1.86-9.69.07-19.38.04-29.07.04-3.11,0-3.96.86-3.96,4,0,30.28,0,60.57,0,90.85,0,3.12.87,4.01,3.97,4.01,9.69,0,19.38-.03,29.07.04,1.5.01,1.89-.34,1.89-1.86-.06-15.87-.04-31.74-.04-47.61ZM56.5,106.79c-5.75,0-11.5-.03-17.25,0-5.19.03-8.99,3.7-9.03,8.65-.04,5.03,3.78,8.78,9.07,8.79,11.38.03,22.75.03,34.13,0,5.32-.01,9.13-3.71,9.11-8.74-.01-5.03-3.82-8.67-9.16-8.7-5.63-.02-11.26,0-16.88,0ZM56.39,130.07c-3.81,0-7.63-.02-11.44,0-5.06.03-8.86,3.7-8.92,8.57-.06,4.98,3.7,8.82,8.81,8.86,7.69.05,15.37.05,23.06,0,5.06-.03,8.81-3.77,8.83-8.66.02-4.98-3.78-8.74-8.9-8.77-3.81-.02-7.63,0-11.44,0ZM56.34,100.99c3.87,0,7.75.03,11.62,0,5-.05,8.76-3.83,8.76-8.73,0-4.9-3.76-8.67-8.79-8.7-7.69-.04-15.37-.04-23.06,0-5.06.02-8.83,3.75-8.85,8.63-.03,4.98,3.77,8.76,8.88,8.8,3.81.03,7.63,0,11.44,0ZM53.54,153.33c-2.9,0-5.81-.03-8.71,0-5.02.06-8.79,3.79-8.8,8.69,0,4.89,3.76,8.7,8.75,8.74,5.81.05,11.62.05,17.43,0,4.98-.04,8.73-3.88,8.71-8.78-.03-4.82-3.76-8.57-8.66-8.64-2.9-.04-5.81,0-8.71,0Z"/>
    <path class="cls-2" d="M136.35,127.14c-10.95-.46-19.85-5.19-27.24-13.06-3.96-4.22-7.17-8.97-9.9-14.06-1-1.86-.65-3.54.87-4.4,1.53-.87,3.17-.31,4.2,1.59,3.26,6,7.07,11.56,12.26,16.08,5.83,5.06,12.58,7.82,20.32,8.04,2.7.07,3.89.98,3.84,3-.04,2-1.27,2.86-3.99,2.82-.12,0-.24,0-.36,0Z"/>
    <path class="cls-3" d="M193.03,124.25c0,15.87-.02,31.74.04,47.61,0,1.53-.39,1.88-1.89,1.86-9.69-.07-19.38-.03-29.07-.04-3.1,0-3.97-.88-3.97-4.01,0-30.28,0-60.57,0-90.85,0-3.14.86-4,3.96-4,9.69,0,19.38.03,29.07-.04,1.49-.01,1.9.32,1.89,1.86-.06,15.87-.04,31.74-.04,47.61ZM184.3,156.14c-.04-4.73-3.98-8.63-8.72-8.62-4.81,0-8.76,3.99-8.72,8.8.04,4.71,4,8.64,8.72,8.64,4.79,0,8.76-4.01,8.72-8.82Z"/>
    <path class="cls-2" d="M56.5,106.79c5.63,0,11.26-.02,16.88,0,5.33.02,9.14,3.67,9.16,8.7.01,5.03-3.79,8.73-9.11,8.74-11.38.03-22.75.03-34.13,0-5.29-.01-9.11-3.76-9.07-8.79.04-4.95,3.83-8.62,9.03-8.65,5.75-.03,11.5,0,17.25,0Z"/>
    <path class="cls-2" d="M56.39,130.07c3.81,0,7.63-.02,11.44,0,5.12.03,8.92,3.79,8.9,8.77-.02,4.89-3.77,8.63-8.83,8.66-7.69.05-15.37.05-23.06,0-5.12-.03-8.88-3.87-8.81-8.86.06-4.87,3.86-8.54,8.92-8.57,3.81-.02,7.63,0,11.44,0Z"/>
    <path class="cls-2" d="M56.34,100.99c-3.81,0-7.63.02-11.44,0-5.11-.04-8.91-3.82-8.88-8.8.03-4.89,3.8-8.61,8.85-8.63,7.69-.04,15.37-.04,23.06,0,5.03.03,8.78,3.8,8.79,8.7,0,4.9-3.77,8.68-8.76,8.73-3.87.04-7.75,0-11.62,0Z"/>
    <path class="cls-2" d="M53.54,153.33c2.9,0,5.81-.03,8.71,0,4.9.07,8.63,3.82,8.66,8.64.03,4.9-3.73,8.74-8.71,8.78-5.81.05-11.62.05-17.43,0-4.99-.04-8.76-3.85-8.75-8.74,0-4.89,3.78-8.63,8.8-8.69,2.9-.03,5.81,0,8.71,0Z"/>
    <path class="cls-2" d="M184.3,156.14c.04,4.81-3.93,8.82-8.72,8.82-4.72,0-8.68-3.93-8.72-8.64-.04-4.82,3.91-8.8,8.72-8.8,4.74,0,8.68,3.9,8.72,8.62ZM175.63,159.14c1.6-.02,2.85-1.31,2.86-2.91,0-1.62-1.24-2.88-2.86-2.9-1.69-.02-3,1.31-2.95,2.99.05,1.6,1.35,2.84,2.95,2.82Z"/>
    <path class="cls-2" d="M175.63,159.14c-1.6.02-2.9-1.22-2.95-2.82-.06-1.68,1.26-3.01,2.95-2.99,1.62.02,2.86,1.28,2.86,2.9,0,1.61-1.26,2.89-2.86,2.91Z"/>
  </g>
</svg>