<?xml version="1.0" encoding="UTF-8"?>
<svg id="Layer_1" data-name="Layer 1" xmlns="http://www.w3.org/2000/svg" viewBox="0 0 113.34 120.01">
  <defs>
    <style>
      .cls-1 {
        fill: #1f86bb;
        stroke: #074c7b;
        stroke-linecap: round;
        stroke-linejoin: round;
        stroke-width: 3px;
      }
    </style>
  </defs>
  <path class="cls-1" d="M106.64,55.66s13.49,25.49-3,52.48l-26.24-.75s-9,7.5-16.49,9-35.98,3-41.98,1.5-6.56-15.18-1.5-17.24c0,0-5.62-2.81-6-7.31s2.81-7.87,2.81-7.87c0,0-7.12-.37-8.25-7.68-1.12-7.31,5.06-9,5.06-9,0,0-9.56-2.25-9.56-10.87s8.43-10.5,8.43-10.5h47.79s-12.18-13.87-13.68-19.3-1.87-18.18-1.12-21.18,2.44-5.44,8.43-5.44,10.12,16.68,10.12,16.68l33.55,36.55s8.62,0,11.62.94Z"/>
</svg>