<?xml version="1.0" encoding="UTF-8"?>
<svg id="Layer_1" data-name="Layer 1" xmlns="http://www.w3.org/2000/svg" viewBox="0 0 230 230">
  <defs>
    <style>
      .cls-1 {
        fill: #fdc08c;
      }

      .cls-1, .cls-2, .cls-3, .cls-4, .cls-5 {
        stroke-width: 0px;
      }

      .cls-2 {
        fill: #050505;
      }

      .cls-3 {
        fill: #fcd96d;
      }

      .cls-4 {
        fill: #f58165;
      }

      .cls-5 {
        fill: #f19a6d;
      }
    </style>
  </defs>
  <path class="cls-2" d="M221.65,161.38c-5.23,7.18-12.04,11.71-21.31,11.1-6.01-.4-12-1.21-17.9-2.49-10.95-2.36-21.81-4.84-33.2-4.52-19.26.55-38.37,2.11-57.23,6.09-6.18,1.3-12.15,3.38-18.14,5.37-8.28,2.75-14.62-2.36-13.92-11.08.17-2.18.59-4.36,1.71-6.22,1.45-2.42.56-2.78-1.82-3.01-8.43-.82-16.52-2.89-23.68-7.68-6.42-4.3-11.02-9.94-12.58-17.72-2.08-10.38,2.24-19.41,11.6-24.35.79-.42,2.55-.39,1.39-2.23-3.8-6.05-2.23-11.49,2-16.59,4.02-4.84,8.84-8.72,14.22-11.93,1.14-.68,2.14-1.36,2.75-2.68,1.73-3.75,4.47-6.73,7.62-9.35,5.36-4.46,11.48-7.52,18.03-9.79,1.28-.44,2.29-.67.88-2.36-5.59-6.7-5.36-14.02-1.61-21.4,3.96-7.81,11.79-8.7,16.8-1.61,5.99,8.47,13.77,15.18,22.08,21.31,1.78,1.31,3.64,2.22,5.79,2.76,5.24,1.3,10.18,3.39,14.9,5.99,11.8,6.51,21.52,15.51,30.39,25.5,7,7.88,15.52,13.4,25.46,16.69,5.18,1.72,10.44,3.22,15.72,4.59,4.88,1.27,8.66,3.98,11.71,7.89,5.01,6.41,6.43,13.9,6.66,21.76-.18,9.49-2.74,18.25-8.35,25.96ZM88.79,63.76c10.61-1.09,20.86.31,30.83,4.02,1.53.57,2.96,1.26,2.23,3.2-.71,1.89-2.23,1.58-3.79,1.03-25.37-8.97-47.96-2.15-69.14,12.32-2.88,1.97-5.28,4.55-7.43,7.33-.99,1.27-1.87,2.62-2.26,4.2-.67,2.67-.18,5.13,1.85,7.01,2.07,1.91,4.36,1.26,6.57.1,10.91-5.68,22.49-9.13,34.71-10.44,5.85-.63,11.68-.55,17.41.99,8.36,2.24,13.91,7.57,15.93,15.96,2.1,8.71.54,16.73-6.47,22.96-5.03,4.48-10.98,7.61-16.82,10.87-6.99,3.9-14.19,7.43-20.93,11.79-3.57,2.31-5.93,5.48-6.8,9.67-.56,2.7-.44,5.37,1.76,7.33,2.04,1.81,4.45,1.17,6.69.32,16.03-6.05,32.81-8.33,49.72-10.01,12.5-1.24,25.01-1.74,37.55-1.13,7.57.37,14.81,2.67,22.19,4.15,5.83,1.17,11.7,2.01,17.62,2.52,7.52.64,13.17-2.92,17.38-8.7,7.75-10.64,9.93-22.52,6.14-35.14-2.2-7.33-6.79-12.59-14.81-14.42-7.71-1.77-15.3-4.03-22.47-7.5-7.57-3.67-14.06-8.7-19.66-14.98-8.44-9.48-17.48-18.45-28.93-24.16-23.82-11.87-47.34-11.43-70.06,3.2-1.57,1.01-3.07,2.18-4.1,3.82-.11.13-.34.34-.31.38.21.32.45.17.67-.02,8.01-3.12,16.12-5.79,24.74-6.67ZM82.05,107.43c-7.85-9.58-22.49-8.01-27.94,3.02-.58,1.18-.99,1.53-2.27.77-6.14-3.63-12.03-2.37-17.43,1.53-5.75,4.15-7.67,10.06-6.54,16.95.92,5.66,3.91,10.18,8.35,13.67,8.38,6.57,18.18,8.74,28.58,8.92,1.36.02,2.64-.42,3.68-1.26,7.77-6.24,14.18-13.5,17.14-23.28.71-2.36,1.01-4.79.95-7.25.07-4.9-1.43-9.28-4.53-13.06ZM83.04,143.27c8.2-4.61,15.85-8.23,22.43-13.6,8.77-7.15,8.81-21.7-.24-28.42-8.33-6.18-17.89-4.78-27.68-3.61,18.41,13.15,16.05,28.59,5.5,45.63ZM100.49,39.84c-2.68-3.03-5.16-6.24-7.79-9.33-1.91-2.24-4.06-2.43-6.13-.66-5.93,5.08-5.54,16.27.74,20.75,1,.71,2,1.42,3.36,1.16,6.33-1.18,12.71-1.56,19.13-1.32.33.01.67-.15,1.72-.41-4.22-3.46-7.85-6.61-11.03-10.2Z"/>
  <path class="cls-2" d="M21.8,149.53c-2.23,2.31-4.54,4.52-7.16,6.39-5.81,4.13-9.56,3.35-13.26-2.81-.62-1.04-1.14-2.17-1.52-3.33-1.14-3.47-.47-5.46,2.52-7.56,3.11-2.18,6.58-3.65,10.06-5.1,5.98-2.48,11.33,1.26,11.26,7.84.05,1.81-.68,3.3-1.9,4.57ZM4.77,146.03c-.84.56-.93,1.32-.69,2.22.39,1.49,1.2,2.74,2.11,3.95,1.36,1.81,2.84,2.14,4.81.77,2.72-1.89,5.13-4.1,7.44-6.45,1.39-1.42.5-2.77-.12-4.13-.52-1.14-1.31-1.82-2.99-1.51-3.44,1.37-7.17,2.9-10.55,5.15Z"/>
  <path class="cls-2" d="M37.21,160.2c-.41,3.28-1.31,6.47-2.93,9.39-1.36,2.46-3.44,3.33-6.19,2.7-1.97-.45-3.75-1.27-5.29-2.56-1.95-1.63-2.6-3.64-1.61-6.06,1.3-3.16,3.15-6.01,5.22-8.7.98-1.27,2.39-1.78,3.98-1.81,3.82-.04,7.27,3.41,6.81,7.04ZM31.35,158.05c-.94-.52-1.63-.15-2.14.66-1,1.58-1.92,3.21-2.96,4.77-1.24,1.85-.76,3,1.19,3.93,2.08,1,3.14.29,3.72-1.75.54-1.89,1.12-3.76,1.45-4.88.19-1.83-.5-2.3-1.26-2.72Z"/>
  <path class="cls-1" d="M64.05,70.43c8-3.12,16.11-5.79,24.74-6.67,10.61-1.09,20.86.31,30.83,4.02,1.53.57,2.96,1.26,2.23,3.2-.71,1.89-2.23,1.58-3.79,1.03-25.37-8.97-47.96-2.15-69.14,12.32-2.88,1.97-5.28,4.55-7.43,7.33-.99,1.27-1.87,2.62-2.26,4.2-.67,2.67-.18,5.13,1.85,7.01,2.07,1.91,4.36,1.26,6.57.1,10.91-5.68,22.49-9.13,34.71-10.44,5.85-.63,11.68-.55,17.41.99,8.36,2.24,13.91,7.57,15.93,15.96,2.1,8.71.54,16.73-6.47,22.96-5.03,4.48-10.98,7.61-16.82,10.87-6.99,3.9-14.19,7.43-20.93,11.79-3.57,2.31-5.93,5.48-6.8,9.67-.56,2.7-.44,5.37,1.76,7.33,2.04,1.81,4.45,1.17,6.69.32,16.03-6.05,32.81-8.33,49.72-10.01,12.5-1.24,25.01-1.74,37.55-1.13,7.57.37,14.81,2.67,22.19,4.15,5.83,1.17,11.7,2.01,17.62,2.52,7.52.64,13.17-2.92,17.38-8.7,7.75-10.64,9.93-22.52,6.14-35.14-2.2-7.33-6.79-12.59-14.81-14.42-7.71-1.77-15.3-4.03-22.47-7.5-7.57-3.67-14.06-8.7-19.66-14.98-8.44-9.48-17.48-18.45-28.93-24.16-23.82-11.87-47.34-11.43-70.06,3.2-1.57,1.01-3.07,2.18-4.1,3.82.12.12.24.24.36.36Z"/>
  <path class="cls-4" d="M86.59,120.49c.07-4.9-1.43-9.28-4.53-13.06-7.85-9.58-22.49-8.01-27.94,3.02-.58,1.18-.99,1.53-2.27.77-6.14-3.63-12.03-2.37-17.43,1.53-5.75,4.15-7.67,10.06-6.54,16.95.92,5.66,3.91,10.18,8.35,13.67,8.38,6.57,18.18,8.74,28.58,8.92,1.36.02,2.64-.42,3.68-1.26,7.77-6.24,14.18-13.5,17.14-23.28.71-2.36,1.01-4.79.96-7.25Z"/>
  <path class="cls-5" d="M111.51,50.04c-4.22-3.46-7.85-6.61-11.03-10.2-2.68-3.03-5.16-6.24-7.79-9.33-1.91-2.24-4.06-2.43-6.13-.66-5.93,5.08-5.54,16.27.74,20.75,1,.71,2,1.42,3.36,1.16,6.33-1.18,12.71-1.56,19.13-1.32.33.01.67-.15,1.72-.41Z"/>
  <path class="cls-1" d="M63.69,70.07c-.11.13-.34.34-.31.38.21.32.45.17.67-.02-.12-.12-.24-.24-.36-.36Z"/>
  <path class="cls-3" d="M15.32,140.88c-3.44,1.37-7.17,2.9-10.55,5.15-.84.56-.93,1.32-.69,2.22.39,1.49,1.2,2.74,2.11,3.95,1.36,1.81,2.84,2.14,4.81.77,2.72-1.89,5.13-4.1,7.44-6.45,1.39-1.42.5-2.77-.12-4.13-.52-1.14-1.31-1.82-2.99-1.51Z"/>
  <path class="cls-3" d="M32.61,160.77c.19-1.83-.5-2.3-1.26-2.72-.94-.52-1.63-.15-2.14.66-1,1.58-1.92,3.21-2.96,4.77-1.24,1.85-.76,3,1.19,3.93,2.08,1,3.14.29,3.72-1.75.54-1.89,1.12-3.76,1.45-4.88Z"/>
</svg>