<?xml version="1.0" encoding="UTF-8"?>
<svg id="Layer_1" data-name="Layer 1" xmlns="http://www.w3.org/2000/svg" viewBox="0 0 160 160">
  <defs>
    <style>
      .cls-1 {
        fill: #dd7052;
        stroke: #7f3622;
      }

      .cls-1, .cls-2 {
        stroke-linecap: round;
        stroke-linejoin: round;
        stroke-width: 3px;
      }

      .cls-2 {
        fill: #dad1e8;
        stroke: #493d57;
      }

      .cls-3 {
        fill: #bbaad0;
        stroke-width: 0px;
      }
    </style>
  </defs>
  <circle class="cls-3" cx="80" cy="80" r="80"/>
  <g>
    <path class="cls-2" d="M89.82,105.67s-35.77-12.7-37.96-13.68c-1.86-.84-17.38-12.51-21.14-8.08-4.97,5.85,5.64,12.4,5.64,12.4l43.08,16.82,10.38-7.46Z"/>
    <path class="cls-2" d="M134.17,101.91s9.77,14.65-4.17,28.59l-53.79-6.97-53.79-24.9s-2.32-3.98,0-7.14,6.31-2.66,8.3-1.83,35.03,14.28,42.17,14.11c7.14-.17,15.44-2.99,15.44-2.99l-21.08-10.13s-3.98-2.16-1.83-7.3,9.79-1.33,20.92,1.99c0,0,12.12-3.32,22.41,1.33,10.29,4.65,12.62,15.94,12.62,15.94l12.81-.7Z"/>
    <path class="cls-1" d="M75.17,32.94c-9.79-7.88-20.44,2.55-20.44,2.55,0,0-10.64-10.43-20.44-2.55-9.79,7.88-3.73,19.69-.75,23.1,2.98,3.41,21.18,21.21,21.18,21.21,0,0,18.2-17.8,21.18-21.21,2.98-3.41,9.05-15.22-.75-23.1Z"/>
  </g>
</svg>