<?xml version="1.0" encoding="UTF-8"?>
<svg id="Layer_1" data-name="Layer 1" xmlns="http://www.w3.org/2000/svg" viewBox="0 0 230 230">
  <defs>
    <style>
      .cls-1 {
        fill: #6184E5;
      }

      .cls-1, .cls-2, .cls-3 {
        stroke-width: 0px;
      }

      .cls-2 {
        fill: #fff;
      }

      .cls-3 {
        fill: #f58165;
      }
    </style>
  </defs>
  <circle class="cls-1" cx="115" cy="115.5" r="110"/>
  <g>
    <path class="cls-1" d="M210.52,154.08c-4.68,6.43-10.78,10.49-19.09,9.94-5.39-.36-10.75-1.09-16.04-2.23-9.81-2.12-19.54-4.34-29.75-4.05-17.25.49-34.37,1.89-51.28,5.45-5.54,1.17-10.88,3.03-16.25,4.81-7.42,2.47-13.1-2.11-12.48-9.93.16-1.95.53-3.9,1.53-5.58,1.3-2.16.5-2.49-1.63-2.7-7.56-.74-14.81-2.59-21.22-6.88-5.76-3.85-9.87-8.91-11.27-15.88-1.87-9.3,2.01-17.39,10.4-21.82.71-.37,2.29-.35,1.25-2-3.41-5.42-1.99-10.29,1.79-14.86,3.6-4.34,7.92-7.81,12.74-10.69,1.02-.61,1.92-1.22,2.47-2.4,1.55-3.36,4-6.03,6.83-8.37,4.8-3.99,10.29-6.74,16.15-8.78,1.14-.4,2.05-.6.79-2.11-5-6-4.8-12.56-1.44-19.17,3.55-7,10.56-7.79,15.06-1.44,5.37,7.59,12.34,13.6,19.79,19.09,1.6,1.18,3.26,1.99,5.19,2.47,4.69,1.16,9.12,3.04,13.35,5.37,10.57,5.83,19.28,13.9,27.23,22.85,6.27,7.06,13.9,12,22.81,14.96,4.64,1.54,9.35,2.88,14.09,4.11,4.37,1.14,7.76,3.57,10.5,7.07,4.49,5.74,5.76,12.45,5.97,19.5-.16,8.51-2.46,16.35-7.48,23.25ZM91.48,66.62c9.51-.98,18.69.28,27.62,3.6,1.37.51,2.65,1.13,2,2.87-.64,1.7-2,1.42-3.4.92-22.73-8.04-42.97-1.92-61.95,11.03-2.58,1.76-4.73,4.08-6.65,6.57-.88,1.14-1.67,2.35-2.03,3.77-.6,2.39-.16,4.6,1.66,6.28,1.85,1.71,3.9,1.13,5.88.09,9.77-5.09,20.15-8.18,31.09-9.35,5.24-.56,10.47-.49,15.59.88,7.49,2.01,12.47,6.78,14.28,14.3,1.88,7.8.49,14.99-5.79,20.57-4.51,4.01-9.84,6.82-15.07,9.74-6.26,3.5-12.72,6.66-18.75,10.56-3.2,2.07-5.31,4.91-6.09,8.67-.5,2.42-.4,4.82,1.58,6.57,1.83,1.62,3.98,1.04,6,.28,14.36-5.42,29.39-7.46,44.54-8.97,11.2-1.11,22.41-1.56,33.65-1.01,6.79.33,13.27,2.39,19.88,3.72,5.22,1.05,10.49,1.8,15.79,2.25,6.73.58,11.8-2.62,15.57-7.8,6.94-9.54,8.9-20.18,5.5-31.48-1.97-6.57-6.09-11.28-13.27-12.92-6.9-1.58-13.71-3.61-20.13-6.72-6.78-3.29-12.6-7.8-17.61-13.42-7.57-8.49-15.66-16.53-25.92-21.64-21.34-10.64-42.41-10.24-62.77,2.87-1.4.9-2.75,1.96-3.68,3.42-.1.12-.3.31-.28.34.19.29.4.16.6-.02,7.17-2.8,14.44-5.19,22.17-5.98ZM85.45,105.75c-7.03-8.59-20.15-7.18-25.03,2.7-.52,1.06-.88,1.37-2.03.69-5.5-3.25-10.78-2.12-15.61,1.37-5.15,3.72-6.87,9.01-5.86,15.18.83,5.07,3.5,9.12,7.48,12.24,7.5,5.89,16.29,7.83,25.6,8,1.22.02,2.36-.38,3.3-1.13,6.97-5.59,12.71-12.09,15.36-20.86.64-2.11.91-4.29.85-6.5.07-4.39-1.28-8.31-4.06-11.7ZM86.33,137.86c7.35-4.13,14.2-7.38,20.09-12.18,7.86-6.41,7.89-19.44-.22-25.46-7.46-5.54-16.03-4.29-24.8-3.24,16.5,11.78,14.38,25.61,4.93,40.88ZM101.96,45.19c-2.41-2.71-4.63-5.59-6.98-8.36-1.71-2.01-3.64-2.18-5.49-.59-5.31,4.56-4.96,14.58.66,18.59.89.64,1.79,1.27,3.01,1.04,5.67-1.05,11.39-1.4,17.14-1.18.3.01.6-.14,1.54-.37-3.78-3.1-7.03-5.92-9.88-9.13Z"/>
    <path class="cls-2" d="M31.46,143.47c-2,2.07-4.07,4.05-6.42,5.72-5.2,3.7-8.57,3-11.88-2.51-.56-.93-1.02-1.95-1.36-2.98-1.02-3.11-.42-4.9,2.26-6.78,2.78-1.95,5.9-3.27,9.01-4.57,5.35-2.22,10.15,1.13,10.09,7.02.04,1.62-.61,2.96-1.7,4.09ZM16.2,140.33c-.75.5-.83,1.18-.62,1.99.35,1.33,1.08,2.45,1.89,3.54,1.22,1.62,2.54,1.91,4.31.69,2.44-1.69,4.6-3.67,6.66-5.78,1.25-1.27.45-2.48-.11-3.7-.46-1.02-1.17-1.63-2.68-1.35-3.08,1.23-6.42,2.59-9.45,4.61Z"/>
    <path class="cls-2" d="M45.27,153.03c-.37,2.94-1.17,5.79-2.62,8.41-1.22,2.21-3.08,2.99-5.55,2.42-1.76-.41-3.36-1.14-4.74-2.29-1.75-1.46-2.33-3.26-1.44-5.43,1.16-2.83,2.82-5.38,4.68-7.79.88-1.14,2.14-1.6,3.57-1.62,3.42-.03,6.51,3.05,6.11,6.31ZM40.02,151.1c-.84-.46-1.46-.13-1.92.59-.9,1.42-1.72,2.88-2.65,4.27-1.11,1.66-.68,2.69,1.06,3.52,1.86.89,2.82.26,3.34-1.56.48-1.69,1-3.37,1.3-4.38.17-1.64-.45-2.06-1.13-2.44Z"/>
    <path class="cls-2" d="M69.31,72.6c7.17-2.8,14.44-5.19,22.17-5.98,9.51-.98,18.69.28,27.62,3.6,1.37.51,2.65,1.13,2,2.87-.64,1.7-2,1.42-3.4.92-22.73-8.04-42.97-1.92-61.95,11.03-2.58,1.76-4.73,4.08-6.65,6.57-.88,1.14-1.67,2.35-2.03,3.77-.6,2.39-.16,4.6,1.66,6.28,1.85,1.71,3.9,1.13,5.88.09,9.77-5.09,20.15-8.18,31.09-9.35,5.24-.56,10.47-.49,15.59.88,7.49,2.01,12.47,6.78,14.28,14.3,1.88,7.8.49,14.99-5.79,20.57-4.51,4.01-9.84,6.82-15.07,9.74-6.26,3.5-12.72,6.66-18.75,10.56-3.2,2.07-5.31,4.91-6.09,8.67-.5,2.42-.4,4.82,1.58,6.57,1.83,1.62,3.98,1.04,6,.28,14.36-5.42,29.39-7.46,44.54-8.97,11.2-1.11,22.41-1.56,33.65-1.01,6.79.33,13.27,2.39,19.88,3.72,5.22,1.05,10.49,1.8,15.79,2.25,6.73.58,11.8-2.62,15.57-7.8,6.94-9.54,8.9-20.18,5.5-31.48-1.97-6.57-6.09-11.28-13.27-12.92-6.9-1.58-13.71-3.61-20.13-6.72-6.78-3.29-12.6-7.8-17.61-13.42-7.57-8.49-15.66-16.53-25.92-21.64-21.34-10.64-42.41-10.24-62.77,2.87-1.4.9-2.75,1.96-3.68,3.42.11.11.21.22.32.32Z"/>
    <path class="cls-3" d="M89.51,117.45c.06-4.39-1.28-8.31-4.06-11.7-7.03-8.59-20.15-7.18-25.03,2.7-.52,1.06-.88,1.37-2.03.69-5.5-3.25-10.78-2.12-15.61,1.37-5.15,3.72-6.87,9.01-5.86,15.18.83,5.07,3.5,9.12,7.48,12.24,7.5,5.89,16.29,7.83,25.6,8,1.22.02,2.36-.38,3.3-1.13,6.97-5.59,12.71-12.09,15.36-20.86.64-2.11.91-4.29.86-6.5Z"/>
    <path class="cls-2" d="M111.84,54.33c-3.78-3.1-7.03-5.92-9.88-9.13-2.41-2.71-4.63-5.59-6.98-8.36-1.71-2.01-3.64-2.18-5.49-.59-5.31,4.56-4.96,14.58.66,18.59.89.64,1.79,1.27,3.01,1.04,5.67-1.05,11.39-1.4,17.14-1.18.3.01.6-.14,1.54-.37Z"/>
    <path class="cls-2" d="M68.99,72.27c-.1.12-.3.31-.28.34.19.29.4.16.6-.02-.11-.11-.21-.22-.32-.32Z"/>
    <path class="cls-2" d="M25.66,135.72c-3.08,1.23-6.42,2.59-9.45,4.61-.75.5-.83,1.18-.62,1.99.35,1.33,1.08,2.45,1.89,3.54,1.22,1.62,2.54,1.91,4.31.69,2.44-1.69,4.6-3.67,6.66-5.78,1.25-1.27.45-2.48-.11-3.7-.46-1.02-1.17-1.63-2.68-1.35Z"/>
    <path class="cls-2" d="M41.15,153.54c.17-1.64-.45-2.06-1.13-2.44-.84-.46-1.46-.13-1.92.59-.9,1.42-1.72,2.88-2.65,4.27-1.11,1.66-.68,2.69,1.06,3.52,1.86.89,2.82.26,3.34-1.56.48-1.69,1-3.37,1.3-4.38Z"/>
  </g>
</svg>