<?xml version="1.0" encoding="UTF-8"?>
<svg id="Layer_1" data-name="Layer 1" xmlns="http://www.w3.org/2000/svg" viewBox="0 0 791 283">
  <defs>
    <style>
      .cls-1, .cls-2 {
        fill: #727270;
      }

      .cls-1, .cls-2, .cls-3, .cls-4 {
        stroke-width: 0px;
      }

      .cls-1, .cls-4 {
        fill-rule: evenodd;
      }

      .cls-3, .cls-4 {
        fill: #67cdfd;
      }
    </style>
  </defs>
  <path class="cls-2" d="M375.25,78.8l31.4,98.63,31.85-98.63h41.58l-53.52,139.76-17.69,56.61h-42.02l18.13-53.52-54.84-142.86h45.11Z"/>
  <path class="cls-2" d="M501.3,78.8h39.81l.88,20.79c2.65-4.12,5.75-7.96,9.29-11.5,3.83-3.83,9.14-7,15.92-9.51,6.78-2.5,13.71-3.76,20.79-3.76,22.11,0,36.71,8.85,43.79,26.54,1.17,3.25,2.21,7.3,3.09,12.16.88,4.87,1.33,15.12,1.33,30.74v76.96h-42.9v-88.46c0-9.43-1.77-16.37-5.31-20.79-3.54-4.42-9.29-6.64-17.25-6.64-8.56,0-15.11,2.73-19.68,8.18-4.57,5.46-6.85,13.35-6.85,23.66v139.23h-42.02V101.35l-.88-19.02v-3.54Z"/>
  <path class="cls-2" d="M790.12,128.77h-41.13c0-7.66-1.7-13.93-5.09-18.8-3.39-4.87-7.74-7.3-13.05-7.3-7.08,0-12.46,3.91-16.14,11.72-3.69,7.82-5.53,18.95-5.53,33.39,0,15.92,1.84,28.16,5.53,36.71,3.68,8.56,9.07,12.83,16.14,12.83,4.12,0,7.88-1.55,11.28-4.65,3.39-3.09,5.97-10.68,7.74-22.77h41.14v.88c0,5.02-1.11,10.84-3.32,17.47-2.21,6.63-4.8,11.87-7.74,15.7-4.72,6.49-11.35,11.65-19.9,15.48-8.56,3.83-17.85,5.75-27.86,5.75-20.94,0-37.3-6.64-49.1-19.9-11.79-13.27-17.69-31.55-17.69-54.85s5.97-40.76,17.91-54.18c11.94-13.41,28.09-20.13,48.43-20.13,7.96,0,15.92,1.48,23.88,4.42,7.96,2.95,14.6,6.79,19.9,11.5,3.83,3.54,7.15,7.89,9.95,13.05,2.8,5.16,4.35,13.05,4.65,23.66Z"/>
  <g>
    <path class="cls-1" d="M227.58,80.17h0c-36.39,0-67.92,21.84-82.97,52.41l32.03,17.96c8.24-19.41,28.62-33,50.94-33,31.06,0,54.83,24.75,54.83,54.83s-23.77,55.8-54.83,55.8h-29.1v-18.44l-63.57,36.88,63.57,36.39v-17.95h29.1c50.95,0,92.19-40.76,92.19-92.68s-41.24-92.19-92.19-92.19h0Z"/>
    <path class="cls-4" d="M92.2,165.96c-31.06,0-55.32-25.23-55.32-55.81s24.25-54.83,55.32-54.83h29.1v18.44l63.57-37.36L121.3,0v17.96h-29.1C41.24,17.96,0,59.2,0,110.15s41.24,92.68,92.2,92.68c36.39,0,67.92-21.83,82.97-52.41l-32.03-17.95c-8.24,19.41-28.62,33.49-50.94,33.49h0Z"/>
  </g>
  <circle class="cls-2" cx="614.29" cy="262.38" r="14.02"/>
  <rect class="cls-3" x="667.58" y="248.36" width="123.42" height="28.05"/>
</svg>